<?xml version="1.0" standalone="no"?>
<!DOCTYPE svg PUBLIC "-//W3C//DTD SVG 20010904//EN"
 "http://www.w3.org/TR/2001/REC-SVG-20010904/DTD/svg10.dtd">
<svg version="1.0" xmlns="http://www.w3.org/2000/svg"
 width="600.000000pt" height="600.000000pt" viewBox="0 0 600.000000 600.000000"
 preserveAspectRatio="xMidYMid meet">

<g transform="translate(0.000000,600.000000) scale(0.100000,-0.100000)"
fill="#000000" stroke="none">
<path d="M693 5959 c-281 -47 -541 -269 -637 -545 -38 -107 -46 -179 -46 -401
l0 -203 911 0 911 0 -6 -72 c-28 -304 -66 -585 -101 -736 -8 -35 -15 -67 -15
-73 0 -5 494 -9 1291 -9 1224 0 1290 1 1285 18 -37 116 -115 679 -116 830 l0
42 911 0 912 0 -6 228 c-5 260 -18 329 -87 468 -116 236 -322 394 -583 448
-68 14 -312 16 -2324 15 -1236 -1 -2272 -5 -2300 -10z m2689 -430 c483 -74
923 -273 1287 -584 l95 -80 -881 -3 c-485 -1 -1279 -1 -1766 0 l-885 3 81 69
c415 358 970 586 1512 620 133 8 426 -5 557 -25z"/>
<path d="M10 4275 l0 -475 834 0 835 0 -15 -52 c-62 -216 -147 -435 -249 -639
-36 -71 -65 -132 -65 -134 0 -3 743 -5 1650 -5 l1650 0 -59 118 c-88 176 -147
318 -206 497 -29 88 -55 172 -59 187 l-6 28 832 2 833 3 3 473 2 472 -556 0
-556 0 55 -59 c172 -187 354 -480 461 -745 l34 -86 -2429 0 c-1336 0 -2429 2
-2429 4 0 14 91 219 137 310 66 128 194 322 284 430 35 43 77 93 92 112 l29
34 -551 0 -551 0 0 -475z"/>
<path d="M10 3300 l0 -440 636 0 c602 0 636 -1 630 -17 -15 -38 -210 -357
-329 -535 l-124 -188 2174 0 c1737 0 2173 3 2167 13 -5 6 -63 95 -130 197
-138 211 -314 501 -314 518 0 9 152 12 635 12 l635 0 0 440 0 440 -260 0
c-143 0 -260 -2 -260 -4 0 -3 11 -46 25 -97 47 -176 85 -471 85 -660 l0 -69
-2580 0 -2580 0 0 108 c0 193 39 483 89 655 l20 67 -260 0 -259 0 0 -440z"/>
<path d="M10 2405 l0 -395 2990 0 2990 0 -2 393 -3 392 -207 3 -207 2 -6 -47
c-32 -246 -75 -440 -135 -606 l-32 -87 -2401 2 -2400 3 -30 80 c-59 163 -137
521 -137 629 l0 26 -210 0 -210 0 0 -395z"/>
<path d="M12 1333 l3 -618 28 -90 c88 -282 286 -476 580 -568 l72 -22 2268 -3
c2223 -2 2269 -2 2364 17 241 50 457 216 568 436 90 179 89 166 93 858 l3 607
-2991 0 -2991 0 3 -617z m702 125 c14 -19 16 -76 16 -412 0 -348 2 -391 17
-408 15 -16 36 -18 261 -18 214 0 248 2 264 17 17 15 18 41 18 407 0 338 2
395 16 414 14 20 24 22 99 22 74 0 86 -2 95 -20 7 -14 10 -161 8 -463 -3 -434
-3 -443 -25 -483 -28 -53 -71 -96 -120 -120 -35 -17 -64 -19 -358 -19 l-320 0
-47 28 c-26 15 -59 42 -72 60 -55 72 -56 84 -56 549 0 277 4 436 10 449 9 16
22 19 95 19 75 0 85 -2 99 -22z m1981 8 c60 -26 104 -66 132 -124 l28 -57 3
-430 c2 -336 0 -435 -11 -455 -11 -23 -19 -25 -91 -28 -125 -5 -116 -39 -116
425 l0 394 -25 24 -24 25 -234 0 c-216 0 -237 -2 -258 -19 l-24 -19 -3 -403
c-2 -272 -6 -407 -14 -416 -7 -9 -36 -13 -85 -13 -125 0 -113 -48 -113 463 0
266 4 456 10 478 14 48 84 127 135 150 36 17 71 19 348 19 246 0 315 -3 342
-14z m1459 -8 c10 -14 16 -44 16 -83 0 -39 -6 -69 -16 -83 l-15 -22 -360 0
-359 0 0 -100 0 -100 338 -2 337 -3 0 -105 0 -105 -337 -3 -338 -2 0 -130 0
-130 355 0 c418 0 395 6 395 -108 0 -45 -5 -75 -16 -90 l-15 -22 -445 0 c-483
0 -487 1 -512 55 -9 19 -12 156 -12 511 l0 486 29 29 29 29 456 0 455 0 15
-22z m1330 6 c9 -23 7 -177 -2 -191 -6 -10 -98 -13 -383 -15 l-374 -3 -3 -327
-2 -328 265 0 265 0 0 115 0 115 -150 0 c-137 0 -150 2 -160 19 -11 21 -14
169 -4 195 5 14 40 16 280 16 l274 0 0 -334 c0 -269 -3 -336 -14 -345 -9 -8
-148 -10 -497 -9 l-484 3 -3 553 -2 552 494 0 c441 0 495 -2 500 -16z"/>
</g>
</svg>
